<?xml version="1.0" standalone="yes"?>
<svg width="460" height="460">
<path style="fill:#000000; stroke:none;" d="M0 0L0 460L460 460L460 0L0 0z"/>
<path style="fill:#acacac; stroke:none;" d="M222 50L222 51L231 51L222 50z"/>
<path style="fill:#737373; stroke:none;" d="M44 226L56 217.879L94 217L171 217L172 167L171 167L171 202C163.557 196.522 157.594 188.551 150.961 182.09C136.76 168.256 121.946 154.604 108.576 139.961C102.818 133.656 91.0591 126.031 92.3981 116C93.9044 104.716 106.76 99.1431 115.961 104.991C134.119 116.532 149.79 137.79 165 153C161.637 153 158.796 152.284 158 156L159 156L176 153L211 153L211 81C211 70.3304 209.347 58.9678 219 52C213.562 50.5072 206.306 57.2845 202 60.2708C190.121 68.51 177.003 76.0064 164 82.3951C149.974 89.2863 132.155 91.1125 117 95.1157C111.366 96.6038 103.866 97.1945 99.1736 100.804C83.9457 112.518 84.4343 142.763 78.9715 160C71.278 184.274 52.5698 202.458 44 226z"/>
<path style="fill:#cdcdcd; stroke:none;" d="M211 153L242 154L242 78C242 69.4816 243.874 55.7201 233.829 51.6034C222.772 47.0715 212.303 53.7262 211.171 65C208.285 93.7329 211 124.111 211 153z"/>
<path style="fill:#737373; stroke:none;" d="M236 52C248.823 80.9566 242 122.1 242 154C250.057 155.019 257.644 156.26 265 159.904C268.045 161.412 271.404 164.996 274.996 163.249C281.703 159.987 288.28 150.528 293.424 145.17C303.376 134.805 313.809 124.852 324 114.715C332.229 106.529 338.509 97.6825 351 100L351 99L287 81.5641L236 52z"/>
<path style="fill:#343434; stroke:none;" d="M255.667 63.3333L256.333 63.6667L255.667 63.3333z"/>
<path style="fill:#373737; stroke:none;" d="M150 86L150 87L154 87L150 86z"/>
<path style="fill:#363636; stroke:none;" d="M299 86L299 87L303 87L299 86z"/>
<path style="fill:#333333; stroke:none;" d="M105 97L105 98L109 98L105 97z"/>
<path style="fill:#393939; stroke:none;" d="M345 97L345 98L348 98L345 97z"/>
<path style="fill:#cdcdcd; stroke:none;" d="M273 166C282.783 173.616 285 184.198 285 196C292.824 192.351 298.949 184.051 305 178L341 142C347.436 135.564 356.535 128.756 359.856 120C362.544 112.911 358.385 108.305 356 102C350.626 100.786 345.649 97.5735 340 99.858C332.113 103.048 325.776 112.221 319.755 117.996C304.269 132.847 285.341 148.465 273 166z"/>
<path style="fill:#a3a3a3; stroke:none;" d="M351 100L354 102L351 100z"/>
<path style="fill:#cdcdcd; stroke:none;" d="M171 202C171 188.062 177.424 158.002 158 156L158 153L165 153C159.057 144.564 150.531 138.232 143.424 130.83C135.193 122.256 126.424 110.315 115.961 104.417C106.359 99.005 93.3853 104.371 92.2076 116C91.152 126.423 101.575 133.339 107.715 139.961C121.522 154.855 136.579 168.705 150.961 183.039C157.04 189.097 163.287 198.242 171 202z"/>
<path style="fill:#a7a7a7; stroke:none;" d="M356 103L358 106L356 103z"/>
<path style="fill:#ffffff; stroke:none;" d="M358 105L359 106L358 105z"/>
<path style="fill:#9f9f9f; stroke:none;" d="M358 106L360 109L358 106z"/>
<path style="fill:#ffffff; stroke:none;" d="M360 108L361 109L360 108z"/>
<path style="fill:#737373; stroke:none;" d="M360 109C362.209 121.081 353.961 128.039 346 136L305 177C299.215 182.785 292.174 193.134 284 195C283.514 204.471 278.149 209.682 273 217L358 217C377.128 217 392.842 214.764 409 226C402.27 202.685 380.501 184.962 373.785 161C370.395 148.905 367.936 136.234 364.873 124C363.768 119.584 363.475 111.99 360 109z"/>
<path style="fill:#3c3c3c; stroke:none;" d="M362 112L362 115L363 115L362 112z"/>
<path style="fill:#383838; stroke:none;" d="M86 128L86 132L87 132L86 128z"/>
<path style="fill:#505050; stroke:none;" d="M166 153L166 154L211 154C199.299 149.09 178.742 153 166 153z"/>
<path style="fill:#7e7e7e; stroke:none;" d="M211 153L211 154L236 154L211 153z"/>
<path style="fill:#2e2e2e; stroke:none;" d="M159 154L171.196 167L172 207L172 269L170.891 301L159 315C195.403 315 246.234 323.856 277.91 301.87C299.432 286.933 298.753 256.788 279.715 240.761C270.653 233.132 254.631 229.507 243 229C256.109 223.982 267.993 223.322 277.867 212C294.636 192.771 280.822 165.36 260 157.32C248.148 152.744 234.444 154 222 154L159 154z"/>
<path style="fill:#565656; stroke:none;" d="M211 157L211 158L223 158L211 157z"/>
<path style="fill:#3c3c3c; stroke:none;" d="M373 157L373 161L374 161L373 157z"/>
<path style="fill:#737373; stroke:none;" d="M208 158C208 167.766 203.813 190.962 211 198L211 158L208 158z"/>
<path style="fill:#cdcdcd; stroke:none;" d="M211 158L211 198L208 196L208 228C218.967 228 234.081 229.482 242.471 220.66C249.696 213.063 249 198.747 249 189L248 189L243 196C240.295 186.848 244.739 175.839 241.397 167.015C237.218 155.982 220.187 158 211 158z"/>
<path style="fill:#737373; stroke:none;" d="M242 166L242 196L243 196C249.861 187.622 250.604 174.111 242 166z"/>
<path style="fill:#626262; stroke:none;" d="M281.333 175.667L281.667 176.333L281.333 175.667z"/>
<path style="fill:#757575; stroke:none;" d="M284.333 184.667L284.667 185.333L284.333 184.667z"/>
<path style="fill:#4e4e4e; stroke:none;" d="M171 203L171 218L172 218L171 203z"/>
<path style="fill:#949494; stroke:none;" d="M247 208L247 212L248 212L247 208z"/>
<path style="fill:#8a8a8a; stroke:none;" d="M56 217L56 218L171 218L136 217L56 217M272 217L272 218L395 218C385.211 213.892 368.634 217 358 217L272 217z"/>
<path style="fill:#cdcdcd; stroke:none;" d="M171 248L171 218L70 218C59.023 218 41.1652 218.624 42.7292 234.884C44.2499 250.695 61.9339 248 73 248L171 248z"/>
<path style="fill:#747474; stroke:none;" d="M171 218L171 249L172 249L171 218z"/>
<path style="fill:#cdcdcd; stroke:none;" d="M245 228C251.628 231.977 261.564 232.675 269 235.348C276.2 237.936 281.06 245.936 288.001 247.682C295.824 249.65 305.944 248 314 248L367 248C382.907 248 412.697 253.971 408.852 229C406.433 213.294 379.964 218 369 218L305 218C294.815 218 283.003 216.341 273 218.275C263.779 220.058 254.374 225.568 245 228z"/>
<path style="fill:#616161; stroke:none;" d="M236.667 224.333L237.333 224.667L236.667 224.333z"/>
<path style="fill:#9d9b9d; stroke:none;" d="M43 226L43 233L44 233L45 226L43 226z"/>
<path style="fill:#6c6c6c; stroke:none;" d="M230.667 226.333L231.333 226.667L230.667 226.333z"/>
<path style="fill:#8a8a8a; stroke:none;" d="M250.667 226.333L251.333 226.667L250.667 226.333z"/>
<path style="fill:#555555; stroke:none;" d="M208 228L208 229L219 229L208 228z"/>
<path style="fill:#989898; stroke:none;" d="M243.667 228.333L244.333 228.667L243.667 228.333z"/>
<path style="fill:#a6a6a6; stroke:none;" d="M409 229L408 241L409 241L409 229z"/>
<path style="fill:#717171; stroke:none;" d="M252.667 230.333L253.333 230.667L252.667 230.333z"/>
<path style="fill:#ffffff; stroke:none;" d="M42.3333 231.667L42.6667 232.333L42.3333 231.667z"/>
<path style="fill:#555555; stroke:none;" d="M208 233L208 234L221 234L208 233z"/>
<path style="fill:#cdcdcd; stroke:none;" d="M208 234L208 273L211 272L211 310C218.993 310 235.565 312.068 240.972 304.362C245.185 298.358 242 281.264 242 274L255 286C256.204 270.75 259.815 247.848 243.96 238.367C233.989 232.405 219.122 234 208 234z"/>
<path style="fill:#919191; stroke:none;" d="M228 234L228 235L231 235L228 234z"/>
<path style="fill:#929292; stroke:none;" d="M234 235L234 236L237 236L234 235z"/>
<path style="fill:#737373; stroke:none;" d="M43 236C43.9756 254.807 64.6983 273.329 72.6019 290C82.6785 311.255 82.2675 336.095 92 357L93 357C90.3272 342.377 106.734 332.189 115.961 322.961C129.163 309.76 142.5 296.631 155.424 283.17C160.191 278.205 167.388 273.447 170.146 266.91C172.292 261.823 171 254.438 171 249L83 249C65.7494 249 53.1999 251.811 43 236M408 241C399.668 251.345 385.933 249 374 249L288 249C290.484 253.741 293.564 258.536 293.946 264C294.377 270.163 291.377 277.726 295.318 283C308.182 300.214 326.817 314.794 342 330C349.16 337.171 359.136 344.549 361 355L362 355C365.926 328.319 374.25 298.832 388.59 276C393.614 268.002 398.414 259.952 403.575 252.039C405.807 248.618 409.162 245.232 408 241z"/>
<path style="fill:#b8b8b8; stroke:none;" d="M55 248L55 249L171 249L136 248L55 248M287 248L287 249L397 249L364 248L287 248z"/>
<path style="fill:#4e4e4e; stroke:none;" d="M171 249L171 267L172 267L171 249z"/>
<path style="fill:#7e7e7e; stroke:none;" d="M255.333 256.667L255.667 257.333L255.333 256.667z"/>
<path style="fill:#8a8a8a; stroke:none;" d="M256 260L256 276L257 276L256 260z"/>
<path style="fill:#3a3a3a; stroke:none;" d="M396.333 262.667L396.667 263.333L396.333 262.667z"/>
<path style="fill:#cdcdcd; stroke:none;" d="M170 267C153.578 286.954 133.379 304.805 114.989 322.961C107.885 329.975 94.8019 338.828 92.4228 349C89.4303 361.796 104.014 371.745 114.999 365.811C123.697 361.113 130.549 352.216 137.424 345.282C146.801 335.823 158.245 326.824 166 316L158 316C160.676 310.885 166.922 310.195 169.682 304.985C173.449 297.874 173.076 274.33 170 267z"/>
<path style="fill:#747474; stroke:none;" d="M171 267L171 299L172 299L171 267z"/>
<path style="fill:#737373; stroke:none;" d="M209 272L208 310L211 310L211 272L209 272M242 274L242 304C259.242 297.857 252.919 282.029 242 274z"/>
<path style="fill:#7c7c7c; stroke:none;" d="M255 281L255 284L256 284L255 281z"/>
<path style="fill:#cdcdcd; stroke:none;" d="M293 281C288.551 290.388 282.642 298.048 274 304C278.891 314.503 290.75 323.128 298.989 331.09C311.423 343.105 323.113 359.866 338 368.853C346.31 373.869 356.26 369.279 360.308 361C365.039 351.323 355.389 343.147 349.576 336.91C332.415 318.501 313.548 295.474 293 281z"/>
<path style="fill:#737373; stroke:none;" d="M236 314L236 315L242 315L242 384C242 395.93 243.732 407.094 233 415L233 416C251.687 412.397 267.813 394.111 285 386.26C302.822 378.119 323.043 377.725 341 371C319.05 349.72 291.652 329.158 274 304C261.062 308.701 250.095 314 236 314z"/>
<path style="fill:#373737; stroke:none;" d="M373 306L373 310L374 310L373 306z"/>
<path style="fill:#656565; stroke:none;" d="M228.667 309.333L229.333 309.667L228.667 309.333z"/>
<path style="fill:#555555; stroke:none;" d="M211 310L211 311L221 311L211 310z"/>
<path style="fill:#737373; stroke:none;" d="M158 313C158.854 316.987 162.489 316 166 316C153.808 328.04 141.614 340.089 129.576 352.285C121.269 360.7 114.538 368.55 102 367L102 368C124.013 376.479 148.324 377.132 170 387.398C186.227 395.084 202.175 412.773 220 416L220 415C209.288 406.764 211 396.274 211 384L211 316C195.89 316 171.529 320.526 158 313z"/>
<path style="fill:#515151; stroke:none;" d="M167 315L167 316L211 316C199.537 311.19 179.48 315 167 315z"/>
<path style="fill:#999999; stroke:none;" d="M211 315L211 316L233 316L211 315z"/>
<path style="fill:#cdcdcd; stroke:none;" d="M211 316C211 344.302 207.635 374.941 211.185 403C212.487 413.287 223.472 418.834 232.985 415.106C243.576 410.957 242 398.074 242 389L242 315L211 316z"/>
<path style="fill:#383838; stroke:none;" d="M86 335L86 339L87 339L86 335z"/>
<path style="fill:#454545; stroke:none;" d="M362 351L362 355L363 355L362 351z"/>
<path style="fill:#ffffff; stroke:none;" d="M90 353L91 354L90 353z"/>
<path style="fill:#a8a8a8; stroke:none;" d="M92 357L96 362L92 357z"/>
<path style="fill:#5a5a5a; stroke:none;" d="M359 362L360 363L359 362z"/>
<path style="fill:#918f91; stroke:none;" d="M100.667 366.333L101.333 366.667L100.667 366.333z"/>
<path style="fill:#393939; stroke:none;" d="M121 373L121 374L125 374L121 373z"/>
<path style="fill:#343434; stroke:none;" d="M328 373L328 374L332 374L328 373z"/>
<path style="fill:#afafaf; stroke:none;" d="M219 416L219 417L234 417L219 416z"/>
</svg>
